<svg width="1477" height="1491" viewBox="0 0 1477 1491" fill="none" xmlns="http://www.w3.org/2000/svg">
<path d="M147.45 1484.49C66.9645 1473.29 3.81742 1403.67 0.178438 1322.12C-1.53403 1285.31 9.09753 1249.5 31.2882 1215.9C46.2009 1193.43 76.2403 1167.6 100.857 1156.05L110.561 1151.41L110.846 666.656C111.274 208.013 111.489 180.975 114.057 167.849C117.268 151.512 126.044 125.188 132.038 113.202C140.315 96.723 155.442 75.8205 168.999 61.7666C225.153 3.76741 304.426 -13.2114 371.997 18.6774C390.62 27.3095 402.75 36.5124 424.798 58.0569C452.055 85.0233 680.597 318.447 781.633 422.46C810.745 452.494 847.063 489.876 862.475 505.571C877.887 521.266 916.347 560.645 947.884 593.319C999.472 646.253 1097.94 747.554 1137.04 787.505C1158.87 809.977 1163.37 817.824 1163.37 834.161C1163.37 863.268 1130.9 879.39 1104.08 863.41C1097.58 859.558 1067.61 829.524 969.362 728.721C736.324 489.377 666.47 417.823 545.17 294.762C522.408 271.505 473.889 222.138 437.427 185.042C358.297 104.214 354.302 101.003 321.194 95.2962C292.724 90.3738 263.612 98.2211 238.068 117.626C220.373 130.895 206.031 152.582 198.681 177.052C196.041 185.826 195.899 208.94 195.613 665.8L195.185 1145.2L203.962 1147.98C217.661 1152.26 240.137 1163.25 252.767 1172.03C266.895 1181.73 289.085 1204.49 298.789 1219.25C311.847 1238.94 322.336 1265.69 326.046 1289.31C328.971 1307 327.259 1343.31 322.978 1359.79C303.927 1431.99 243.42 1482 171.353 1485.21C163.79 1485.49 153.016 1485.21 147.522 1484.42L147.45 1484.49ZM181.914 1395.25C188.549 1393.54 197.183 1390.47 200.965 1388.33C227.008 1374.2 242.849 1346.31 242.849 1314.92C242.849 1289.52 235.285 1270.76 218.232 1253.5C186.052 1220.89 136.961 1221.04 104.353 1253.64C87.5854 1270.4 79.7366 1289.52 79.7366 1313.99C79.7366 1337.39 86.8005 1355.73 102.498 1372.35C123.119 1394.32 152.516 1402.81 181.914 1395.25Z" fill="url(#paint0_linear_1883_875)"/>
<path d="M1139.47 1478.29C1103.43 1470.58 1069.11 1452.75 1042.64 1427.49C1035.86 1421.22 989.84 1374.42 940.107 1323.48C872.679 1254.57 848.847 1229.17 846.064 1223.46C840.356 1211.9 840.856 1197.14 847.135 1186.08C854.841 1172.53 866.4 1166.1 883.168 1165.89C899.151 1165.89 894.727 1162.04 1009.82 1280.53C1050.92 1322.84 1086.17 1358.86 1088.02 1360.43C1109.43 1378.27 1125.77 1386.9 1147.1 1391.4C1190.2 1400.46 1234.65 1381.41 1259.34 1343.38C1267.97 1329.97 1273.32 1316.27 1277.68 1296.73C1280.74 1282.1 1280.74 1280.39 1281.39 820.392C1281.53 566.495 1281.53 356.542 1281.1 353.903C1280.32 349.266 1279.89 349.123 1264.33 345.271C1205.54 330.646 1156.59 281.065 1140.25 219.213C1135.47 201.521 1134.4 167.207 1137.75 147.802C1149.31 80.8857 1198.26 23.8853 1259.7 6.19303C1316.06 -10.1438 1375.79 6.33571 1418.38 49.7816C1440.22 72.1109 1455.77 98.4353 1464.12 127.185C1477.39 173.057 1471.54 226.133 1449.21 264.799C1430.44 297.259 1399.62 324.083 1367.01 336.496L1363.44 337.709L1363.01 822.961L1362.73 1308.21L1359.16 1322.98C1349.17 1366.57 1332.19 1398.89 1304.79 1426.07C1277.68 1453.18 1244.14 1471.15 1206.11 1478.86C1189.48 1482.21 1157.3 1481.93 1139.47 1478.22V1478.29ZM1323.7 262.374C1335.12 260.091 1349.39 252.957 1359.23 244.824C1390.34 219.57 1398.05 168.491 1376.5 132.464C1365.44 113.987 1346.96 98.9346 1328.34 93.2275C1316.35 89.5178 1294.3 89.0898 1282.03 92.4427C1244.28 102.43 1217.53 141.096 1221.09 180.619C1222.81 200.451 1231.23 220.926 1244 235.693C1262.34 257.095 1295.73 268.152 1323.7 262.303V262.374Z" fill="url(#paint1_linear_1883_875)"/>
<path d="M1133.04 1234.38C1106.72 1228.67 1083.17 1207.77 1072.39 1180.52C1067.33 1167.46 1067.19 1141.14 1072.25 1123.87C1075.46 1112.96 1075.61 1111.74 1073.32 1108.6C1072.11 1106.61 1039.14 1072.01 1000.04 1031.49C955.591 985.473 926.907 956.865 923.268 955.01C914.634 950.516 907.071 951.015 903.86 955.795C902.504 957.935 892.8 980.693 882.454 1006.45C871.965 1032.13 860.62 1058.95 856.91 1066.02C834.434 1109.1 789.981 1125.73 749.81 1105.89C740.248 1101.11 735.182 1097.4 728.546 1090.06C712.992 1073.01 711.279 1068.51 666.969 928.9C643.851 856.134 620.019 782.226 617.379 775.448C616.951 774.378 615.381 773.451 614.025 773.451C612.313 773.451 607.746 781.013 599.398 797.778C583.701 829.453 573.854 843.935 558.156 858.845C543.244 872.97 532.327 879.961 515.202 886.096C488.873 895.299 464.399 895.299 437.499 885.954C400.895 873.327 371.498 842.865 356.656 802.558C346.81 775.591 347.095 779.443 346.524 664.659L345.882 559.861L340.959 558.148C331.754 554.938 316.485 543.524 305.853 531.967C297.719 523.335 292.938 516.272 287.373 504.715C263.184 455.633 271.961 399.632 309.849 359.61C323.977 344.557 338.961 334.998 357.869 328.649C371.426 324.011 374.78 323.583 392.19 323.441C413.31 323.298 425.44 326.08 443.136 334.855C470.821 348.98 497.007 381.654 505.641 413.329C509.636 427.668 509.494 467.19 505.498 480.245C498.577 503.003 485.805 523.834 470.892 536.604C460.546 545.521 446.133 554.153 436.286 557.364C421.801 562.143 423.014 552.584 423.014 655.527C423.014 706.963 423.799 751.122 424.584 757.257C429.507 792.213 460.118 814.329 490.942 805.126C510.35 799.276 521.909 784.937 539.462 744.059C556.23 705.251 567.004 690.983 586.412 681.138C594.118 677.143 612.456 674.361 624.443 675.431C647.062 677.286 670.751 695.905 683.095 721.444C689.088 734.357 701.861 771.953 731.757 865.836C740.819 894.158 753.306 933.68 759.585 953.584C777.28 1009.16 777.423 1009.3 780.491 1017.93C782.204 1022.21 784.059 1025.92 784.63 1025.92C786.342 1025.92 790.766 1015.58 810.959 965.141C830.795 915.774 835.575 905.572 845.279 892.802C853.556 881.887 860.049 876.608 872.964 870.188C881.598 865.693 884.167 865.265 900.364 864.623C933.115 863.41 944.816 870.188 987.2 914.49C1063.55 994.533 1131.76 1064.52 1136.04 1067.58C1138.97 1069.72 1146.39 1072.08 1155.59 1073.86C1191.27 1080.5 1215.74 1102.47 1224.23 1135.86C1228.87 1154.05 1225.59 1179.87 1216.38 1196.64C1208.25 1211.55 1189.41 1227.1 1173.43 1232.02C1170.08 1233.09 1166.65 1234.52 1165.87 1235.23C1163.58 1237.23 1144.03 1236.59 1133.12 1234.31L1133.04 1234.38ZM1167.65 1183.73C1175.78 1178.66 1183.35 1166.03 1183.35 1157.54C1183.35 1144.63 1171.5 1129.72 1158.23 1126.01C1139.47 1120.8 1116.49 1143.56 1121.63 1162.47C1125.62 1176.95 1142.11 1189.86 1154.88 1188.51C1158.45 1188.22 1164.08 1186.01 1167.65 1183.73ZM411.384 489.02C418.805 485.311 429.222 474.681 433.075 467.19C434.645 463.98 436.001 457.06 436.429 450.14C437.071 439.796 436.571 437.37 432.861 428.881C424.727 410.689 408.387 401.344 388.194 402.842C371.855 404.197 359.225 412.829 351.876 427.953C347.381 437.156 347.095 438.868 347.737 449.783C348.665 463.909 352.018 471.756 361.58 481.03C370.784 489.805 380.988 493.515 394.331 492.873C401.395 492.444 407.245 491.16 411.241 489.02H411.384Z" fill="url(#paint2_linear_1883_875)"/>
<defs>
<linearGradient id="paint0_linear_1883_875" x1="1.78383e-05" y1="-0.000114062" x2="1476.73" y2="1491.27" gradientUnits="userSpaceOnUse">
<stop stop-color="#FFC061"/>
<stop offset="0.5" stop-color="#FF8A3C"/>
<stop offset="1" stop-color="#F2622A"/>
</linearGradient>
<linearGradient id="paint1_linear_1883_875" x1="0.000115016" y1="-1.06135e-06" x2="1476.73" y2="1491.27" gradientUnits="userSpaceOnUse">
<stop stop-color="#FFC061"/>
<stop offset="0.5" stop-color="#FF8A3C"/>
<stop offset="1" stop-color="#F2622A"/>
</linearGradient>
<linearGradient id="paint2_linear_1883_875" x1="0.000142736" y1="2.28994e-05" x2="1476.73" y2="1491.27" gradientUnits="userSpaceOnUse">
<stop stop-color="#FFC061"/>
<stop offset="0.5" stop-color="#FF8A3C"/>
<stop offset="1" stop-color="#F2622A"/>
</linearGradient>
</defs>
</svg>
